<svg width="188" height="374" viewBox="0 0 188 374" fill="none" xmlns="http://www.w3.org/2000/svg">
<path fill-rule="evenodd" clip-rule="evenodd" d="M49.9749 341.791C49.1751 338.069 52.8332 336.81 55.1394 335.982C56.7913 334.91 62.9119 331.2 67.6478 326.62C71.5231 322.872 74.1612 318.068 75.2594 317.61C75.2594 317.61 76.3897 316.955 76.5071 316.468C77.195 313.614 76.6213 310.954 76.5071 309.224C74.3024 308.645 72.5358 307.923 71.2145 306.913C70.8292 307.042 70.2516 307.206 70.0794 306.643C68.8854 298.677 68.3699 290.805 67.3984 282.833C63.721 252.47 63.3061 216.997 69.6328 189.265C69.6993 187.891 69.5794 186.649 69.4567 185.468C68.6012 185.376 68.084 184.548 67.3855 184.053C66.3013 183.191 65.0176 182.529 65.0705 181.023C64.813 180.828 64.843 180.719 64.9699 180.47C64.143 176.914 67.8317 173.167 68.8749 170.236C66.9786 151.69 69.5588 134.164 68.1193 115.614C66.3012 114.853 67.5235 110.099 67.6478 108.137C68.655 95.5033 75.2233 83.0118 87.0514 78.8844C87.7275 78.7474 88.7439 77.9746 89.3034 78.4935C90.3847 78.0652 91.8234 78.9097 92.6602 77.9374L92.6518 77.9311C93.3565 76.9541 93.6723 75.7121 93.9039 74.5377C93.8652 74.8686 93.8005 75.1968 93.7208 75.5176C95.7599 69.7714 96.2737 68.2349 102.838 67.9643C105.795 67.9248 109.693 68.0135 111.417 70.8335C112.124 72.1444 111.908 73.6496 112.346 75.0294C113.151 77.5615 116.626 76.3379 118.45 77.6528C133.049 82.3346 145.023 91.8911 148.959 107.23C149.764 109.079 150.677 110.919 151.349 112.827C151.453 113.11 151.74 114.068 151.052 114.509L150.719 114.723C155.101 135.201 155.392 152.457 140.67 166.11C139.566 171.976 142.408 179.987 141.315 185.683C141.938 186.566 141.148 187.277 140.353 187.334C140.276 187.377 139.966 187.512 139.881 187.551C141.148 205.428 135.83 229.521 133.487 239.031C133.168 244.74 135.116 249.43 139.125 252.542C143.555 255.27 152.312 267.59 150.689 280.514C152.586 280.886 154.469 281.09 156.29 281.803C164.254 280.397 164.175 295.749 164.682 301.147C165.542 310.185 166.076 323.285 157.489 329.071C155.227 330.712 150.64 332.633 148.289 330.006C147.519 329.081 147.326 328.187 147.629 327.243C143.748 321.759 144.794 314.587 144.437 308.156C143.312 308.088 142.134 308.616 141.046 308.424C139.928 307.439 144.005 307.708 144.428 307.65C144.384 306.658 144.304 305.614 144.201 304.614C143.562 304.742 142.743 305.049 142.128 305.072C141.764 305.161 141.507 304.66 141.727 304.4C142.206 303.943 143.43 304.013 144.118 303.948C144.002 303.111 143.86 302.232 143.702 301.422C142.86 301.392 141.99 301.928 141.192 301.819C141.796 301.416 142.929 301.538 143.665 301.272C143.186 298.665 142.211 296.191 141.305 293.752C139.081 294.669 137.162 294.705 134.991 294.43C134.103 294.567 133.67 294.385 133.526 293.275L133.583 293.204C131.862 282.908 126.309 273.092 115.995 261.961C113.957 259.681 111.655 256.997 110.121 253.995C107.038 247.749 106.512 240.857 104.137 234.37C101.919 227.85 98.8875 221.614 96.0408 215.433C95.6233 218.601 95.0625 221.85 94.4796 224.956C91.9139 235.963 92.1626 247.706 94.0508 258.774C96.8444 274.275 95.4978 289.85 96.1192 305.461C96.1107 306.362 95.9991 307.179 96.1311 308.117C96.1486 308.189 96.1145 308.275 96.0291 308.272L95.8678 308.277C94.5251 309.26 92.6707 309.437 91.0929 309.971C90.4303 310.495 90.6169 311.326 90.5562 311.974C90.3829 314.766 90.1613 317.569 90.4363 320.447C91.6538 322.78 93.1657 322.298 93.475 325.586C93.7457 329.34 94.2247 333.332 92.3964 336.674L93.0881 336.793C94.1147 338.947 93.488 340.346 91.0753 341.257C79.1644 345.926 62.404 350.166 49.9749 346.641C49.749 346.865 49.4204 346.633 49.1635 346.281C48.9167 345.943 48.736 345.494 48.7762 345.233C48.9887 344.09 48.6965 342.003 49.9749 341.791Z" fill="white"/>
<path fill-rule="evenodd" clip-rule="evenodd" d="M49.4073 345.531C60.1104 350.337 79.5455 344.273 90.0621 340.764C92.8977 339.742 93.8422 339.541 93.0478 336.272C91.5612 339.141 88.364 339.834 85.301 340.409C74.9254 342.774 64.3475 347.14 53.2512 345.01C51.6225 344.753 50.011 343.872 49.537 342.245C49.2448 342.934 49.4255 343.868 49.3086 344.626C49.2869 344.929 49.2802 345.256 49.4073 345.531ZM92.6955 327.656C92.5023 325.729 92.1931 323.694 91.0963 321.992C91.2157 324.745 89.562 329.425 85.9386 327.866C84.9123 327.322 84.3371 326.227 83.6769 325.347C81.4822 322.454 78.6681 319.941 75.489 318.116C73.7207 318.42 72.9602 321.653 71.8203 323.007C73.091 323.573 75.3937 324.863 75.6266 326.198C74.0399 325.664 72.5796 324.67 70.9155 324.321C70.3826 325.056 69.8176 325.77 69.2243 326.459C69.9996 326.8 73.1251 328.38 73.1045 329.169C71.4146 328.894 69.7768 328.067 68.0777 327.727C67.3219 328.476 66.6341 329.283 65.8818 330.035C67.0184 330.503 68.2186 331.026 68.8392 332.117C68.8686 332.166 68.796 332.221 68.7561 332.173C67.9048 331.147 66.4398 330.959 65.1702 330.728C63.2223 332.562 61.0411 334.18 58.5999 335.39C56.1575 336.726 52.4454 337.031 51.4737 339.928C50.6963 342.824 53.1206 343.133 55.3573 343.338C57.6202 343.66 59.899 343.709 62.1471 343.521C69.1744 343.228 75.8176 341.159 82.4585 339.352C90.5779 337.857 93.2126 336.647 92.6955 327.656ZM90.3144 310.72C90.3337 310.847 90.3507 310.974 90.3689 311.103C90.3917 310.967 90.4075 310.831 90.4406 310.698C90.3984 310.705 90.3565 310.713 90.3144 310.72ZM77.1962 317.188C80.307 319.488 83.3439 322.052 85.5045 325.26C86.9343 327.871 88.8369 326.282 89.3096 324.19C89.6927 319.521 89.3631 315.489 89.8119 310.792C85.5101 311.379 81.0912 311.017 76.8894 309.98C77.3951 312.077 77.627 312.873 77.6429 315.024C77.6155 315.732 77.6259 316.598 77.1962 317.188ZM70.2325 145.333C70.1405 152.206 70.0973 159.08 70.336 165.95C76.3859 150.314 74.5343 133.349 75.3937 116.915C73.6057 116.319 71.6851 116.059 69.8427 115.804C70.5826 126.005 70.3917 135.117 70.2325 145.333ZM104.424 180.052C119.278 172.95 121.333 154.742 133.095 144.711C133.475 144.349 133.79 143.978 133.973 143.54C133.13 135.02 133.191 127.551 132.194 119.04C131.08 117.019 130.64 114.673 129.811 112.522C129.377 111.213 128.849 109.917 128.724 108.543C128.62 108.09 129.327 107.894 129.458 108.321C131.028 111.371 131.809 114.763 132.981 117.98C133.146 118.045 133.365 117.993 133.43 117.82C133.44 117.863 133.451 117.905 133.461 117.947C138.504 115.976 143.704 114.141 149.198 114.154C149.195 114.137 149.19 114.119 149.187 114.102C149.526 114.112 150.236 114.085 150.023 113.594C145.194 95.985 136.523 83.915 118.13 78.1817C120.482 91.845 86.2558 92.636 86.7286 79.9181C73.8355 85.4571 68.2811 101.014 69.7427 114.112C70.9679 113.782 74.1583 115.083 75.4028 115.839C75.6562 110.52 75.0265 104.101 75.3971 99.3455C77.3588 123.595 81.0196 152.61 68.9209 174.613C68.1356 176.088 66.8548 177.499 66.8866 179.231C66.7922 179.326 66.7831 179.494 66.8979 179.616C66.8979 179.624 66.8979 179.632 66.899 179.64C66.9048 179.641 66.9116 179.641 66.9183 179.641C67.2695 180.059 68.0082 180.142 68.5164 180.234C69.7165 180.477 70.9793 180.661 72.0784 181.217C83.7882 187.364 92.9728 179.44 104.424 180.052ZM100.723 191.225C100.157 192.306 99.2067 193.175 98.0804 193.718C98.2191 193.991 98.2669 194.298 98.2817 194.585C100.31 195 99.7399 195.963 101.11 196.422C102.007 196.67 102.87 196.775 103.645 197.318C106.283 199.775 106.938 199.595 109.769 197.433C109.73 197.238 113.583 193.475 114.776 191.372C115.771 189.617 116.812 187.85 118.336 186.493C125.8 178.851 133.751 171.64 140.976 163.787C155.456 149.36 152.693 133.001 149.367 114.981C144 115.621 138.602 116.909 133.768 119.273C135.473 127.227 135.582 134.436 136.317 142.507C136.538 143.505 136.288 145.427 134.874 144.983C121.878 155.301 120.367 176.504 103.312 182.635C96.3609 185.46 99.2943 187.753 96.9973 193.088C98.2612 192.856 99.3887 191.797 99.9319 190.783C100.201 190.279 100.986 190.723 100.723 191.225ZM140.007 184.965C140.301 182.944 140.072 180.931 140.058 178.906C140.216 175.218 140.093 171.624 139.951 167.924C135.876 172.145 131.638 176.224 127.476 180.367C131.909 180.927 137.021 181.387 140.007 184.965ZM140.082 187.939C140.012 187.917 139.944 187.886 139.882 187.849C139.898 189.435 139.873 191.021 139.815 192.606C139.926 191.051 140.015 189.495 140.082 187.939ZM145.068 300.708C146.264 300.616 151.377 300.44 151.991 301.242C151.3 301.534 150.35 301.373 149.606 301.405C148.163 301.465 146.723 301.592 145.294 301.794C145.401 302.351 145.498 302.907 145.577 303.465C147.018 303.602 149.824 303.665 150.739 304.673C149.107 304.933 147.408 304.699 145.77 305.024C145.85 305.788 145.908 306.552 145.951 307.317C146.603 307.387 150.44 308.022 150.437 308.625C149 308.816 147.479 308.565 146.015 308.707C146.332 313.29 145.257 327.131 151.521 327.978C156.998 327.689 159.401 318.813 160.145 314.555C161.796 304.634 161.513 294.056 158.242 284.493C157.073 281.834 153.893 281.372 151.204 281.235C151.102 281.685 151.001 282.127 150.887 282.573C152.053 285.216 152.425 288.192 152.457 291.053C152.21 295.164 147.137 298.221 143.452 295.505C144.141 297.187 144.672 298.937 145.068 300.708ZM152.316 330.286C163.164 327.954 164.944 315.392 164.198 306.155C163.59 299.725 164.321 286.168 158.385 282.391C166.057 289.393 165.391 337.067 148.389 328.746C148.813 330.089 150.993 330.477 152.316 330.286ZM150.19 285.465C150.171 285.299 150.15 285.134 150.127 284.968C148.923 288.238 146.861 291.345 143.792 293.238C144.967 294.704 147.256 295.14 148.8 293.94C151.494 291.921 150.371 288.267 150.19 285.465ZM113.211 76.5952C113.233 76.6327 113.256 76.6702 113.279 76.7066C113.429 76.7168 113.58 76.7305 113.733 76.7475C113.559 76.6952 113.385 76.6464 113.211 76.5952ZM92.5949 77.7958C92.6008 77.7786 92.6065 77.7615 92.6111 77.7455C92.5973 77.7535 92.5836 77.7626 92.5687 77.7718C92.58 77.7786 92.587 77.7866 92.5949 77.7958ZM48.3538 343.541C48.3833 342.728 48.3948 341.677 49.3472 341.389C48.9153 337.884 51.8249 335.889 54.8798 334.918C57.4848 333.324 60.4389 332.211 62.8325 330.29C61.7209 330.082 60.6093 329.83 59.6217 329.346C58.8761 328.981 59.2352 327.767 60.0432 327.879C61.4743 328.068 62.7596 328.795 64.1043 329.301C64.868 328.674 65.6079 328.019 66.3068 327.325C65.4363 327.157 64.3293 327.219 63.8223 326.355C63.6643 326.085 63.7349 325.804 63.9257 325.596C64.8077 324.703 66.5558 325.594 67.6515 325.854C68.1776 325.248 68.6857 324.629 69.1847 324.003C68.3571 323.927 66.2046 324.078 66.6262 322.713C67.4343 321.645 69.172 322.285 70.3405 322.505C71.8226 320.683 72.3 317.887 74.6163 316.885C74.6992 316.443 75.2765 316.477 75.6618 316.608C76.2289 313.901 76.1857 312.524 76.0198 309.749C74.3003 309.273 72.5943 308.648 71.1645 307.623C70.5075 307.816 69.7109 307.593 69.5744 306.822C69.1655 304.103 68.9371 300.965 68.6504 298.187H68.5459C68.0016 293.121 67.5629 288.04 66.9467 282.987C63.4201 253.78 62.6517 218.13 69.1801 189.275C69.2313 188.182 69.1539 187.087 69.0437 186.002C68.2652 185.794 67.8015 185.034 67.157 184.594C65.9591 183.618 64.7406 183.071 64.6304 181.368C64.3884 181.137 64.36 180.788 64.4928 180.486C64.1826 178.737 64.6396 177 65.5704 175.489C66.5909 173.767 67.5548 172.029 68.406 170.223C66.5444 152.01 69.0698 134.359 67.6889 116.056C65.9182 115.118 67.0298 109.909 67.1944 108.172C68.2288 96.768 73.5536 84.1764 84.8748 79.4329C85.6693 78.7624 86.7785 78.5351 87.7492 78.1658C88.405 77.843 89.4722 77.5635 89.9211 78.3146C90.3972 78.093 91.9306 77.9237 92.4557 77.5396C92.5534 77.468 92.6159 77.3896 92.6307 77.3021C92.6693 77.3032 92.7148 77.2953 92.7637 77.285C93.2477 76.6009 93.7093 71.8358 94.306 72.1756C94.9572 73.8121 94.506 75.6611 93.8831 77.3134C93.4536 78.7749 92.8647 82.5342 90.5826 81.5728C90.1893 81.3773 90.4326 80.8693 90.7849 80.8284C91.8668 80.5193 92.1079 78.9295 92.5261 77.9976C92.0306 78.409 89.7733 79.026 89.5266 79.1567C84.6303 90.3938 114.234 89.804 116.562 82.0569C118.221 79.3806 116.789 77.9305 113.831 77.501C116.005 79.917 113.252 80.4534 112.206 78.0839C111.204 76.3873 110.749 74.3258 111.091 72.3734C110.914 71.6881 110.765 70.7721 111.791 70.9562C111.826 70.8653 111.882 70.9369 111.86 71.0017C112.234 71.5972 111.974 72.4529 112.107 73.1405C112.219 74.2655 112.539 75.3679 113.081 76.3634C114.086 76.5554 115.088 76.7611 116.085 76.9862C116.682 75.7713 120.56 78.1942 121.602 78.4794C135.432 82.5649 145.95 93.4451 149.621 107.169C150.44 108.996 151.325 110.833 151.995 112.717C152.295 113.533 152.295 114.545 151.471 115.074C155.487 133.492 156.467 152.682 141.297 166.496C140.953 167.992 141.182 169.578 141.192 171.101C141.065 174.569 144.029 186.456 140.586 187.994C141.592 203.393 137.82 224.345 134.164 239.201C133.893 244.307 135.433 248.951 139.578 252.173C147.459 258.064 150.779 267.898 151.701 277.269C151.832 278.229 151.703 279.206 151.487 280.15C153.196 280.468 154.795 280.675 156.453 281.301C165.599 279.549 164.946 299.196 165.646 305.026C166.194 313.645 165.852 323.976 157.932 329.62C155.269 331.515 150.568 333.336 147.973 330.465C147.239 329.587 146.839 328.559 147.127 327.437C143.407 321.99 144.286 315.028 144.008 308.83C143.034 308.864 141.972 309.298 141.013 309.059C140.274 308.864 140.18 307.916 140.805 307.539C141.707 307.027 142.934 307.222 143.943 307.188C143.912 306.594 143.868 306.001 143.811 305.408C142.853 305.642 141.48 306.205 141.195 304.866C141.08 303.647 142.62 303.553 143.579 303.501C143.512 303.041 143.437 302.583 143.352 302.126C142.617 302.2 141.842 302.668 141.121 302.444C140.712 302.283 140.569 301.869 140.868 301.534C141.424 300.99 142.374 301.099 143.11 300.929C142.663 298.742 141.856 296.65 141.079 294.557C139.672 295.046 138.147 295.369 136.646 295.246C135.868 295.082 135.017 295.036 134.231 295.142C133.356 294.91 133.153 293.974 133.039 293.211C133.056 293.183 133.073 293.157 133.092 293.133C131.07 281.36 123.817 271.189 115.683 262.426C113.443 259.919 111.246 257.312 109.724 254.334C106.633 248.111 106.078 241.11 103.713 234.645C101.721 228.774 99.0579 223.144 96.4472 217.506C95.4005 224.932 93.4456 232.235 93.2216 239.765C92.8806 249.292 94.9799 258.68 95.8755 268.131C97.1695 278.125 96.4802 288.169 96.5623 298.187H96.5066C96.5278 300.603 96.5934 303.123 96.7438 305.532C96.7381 306.413 96.6244 307.242 96.7496 308.123C96.8188 308.611 96.4687 308.916 96.1005 308.926C94.7481 309.814 93.0488 310.129 91.4941 310.508C91.0634 310.838 91.2497 311.649 91.1735 312.146C91.0065 314.936 90.7859 317.041 91.0577 319.854C92.5784 322.102 93.6739 321.743 94.0968 325.161C94.3297 328.729 94.8424 332.587 93.2831 335.825C93.9809 335.984 94.2457 338.113 94.1412 338.677C93.9639 340.266 92.5625 340.769 91.2077 341.317C81.3072 345.026 60.2705 351.133 50.0972 346.934C49.3687 347.346 48.5562 346.538 48.3208 345.887C48.0095 345.095 48.2959 344.328 48.3538 343.541Z" fill="black"/>
<path fill-rule="evenodd" clip-rule="evenodd" d="M121.284 32.798C120.749 32.2225 120.064 31.7938 119.316 31.6568C120 31.9992 120.669 32.356 121.284 32.798ZM122.332 37.7599C122.427 37.3213 122.49 36.8785 122.51 36.4358C122.391 36.618 122.2 36.7397 121.985 36.8026C122.124 37.1136 122.242 37.4339 122.332 37.7599ZM86.5238 44.6357C87.1415 42.0592 90.0233 37.1031 90.7044 36.1493C91.4441 33.7873 87.4101 31.8932 89.604 30.0462C90.5973 29.2129 91.91 28.9179 93.1415 28.6224C101.668 26.5704 110.829 27.6053 118.737 31.3787C119.94 31.1251 121.193 31.6208 122.067 32.4915C126.177 36.6307 120.576 44.0989 119.352 48.7653C117.251 53.9684 121.579 54.8437 121.115 59.246C120.754 61.5203 118.455 62.1214 116.516 62.4652C116.205 62.5381 115.789 62.549 115.689 62.8784C115.374 64.8008 114.297 66.6329 112.85 67.8763C112.977 68.2518 112.88 68.7078 112.434 69.0376C108.392 72.0475 103.296 73.5538 98.2554 73.283C92.248 72.9603 89.1413 69.5098 88.3916 68.6213C84.2467 63.0118 84.7419 55.6105 85.5875 48.9254C86.1765 44.2683 85.4296 49.2002 86.5238 44.6357Z" fill="white"/>
<path fill-rule="evenodd" clip-rule="evenodd" d="M105.047 23.1956C104.859 22.6041 104.324 22.2484 103.712 22.3218C103.17 22.3859 102.591 22.9247 102.657 23.5193C102.669 23.634 102.685 23.7416 102.705 23.8429L102.703 23.8438L102.7 23.844L102.713 23.8832C102.754 24.0725 102.809 24.2421 102.892 24.4024C102.997 24.7095 103.098 25.0176 103.198 25.3268C103.054 25.3206 102.906 25.3289 102.757 25.3568C102.602 24.9597 102.446 24.5637 102.291 24.1655C102.125 23.7405 102.009 23.1946 101.68 22.8657C101.26 22.4459 100.532 22.359 100.02 22.6589C99.4794 22.9753 99.2865 23.5379 99.4041 24.1407C99.4639 24.4482 99.6689 24.6622 99.9226 24.7967L99.95 24.8108L100.145 25.2741C100.085 25.2482 100.023 25.2244 99.9562 25.2048C99.8509 25.1738 99.7477 25.1541 99.6466 25.1458C99.368 24.6402 99.0615 24.149 98.7447 23.6671C98.3805 23.1129 97.6685 22.8771 97.071 23.2276C96.5365 23.541 96.2496 24.3641 96.6325 24.9049C96.9235 25.3154 97.199 25.7342 97.4704 26.1572C97.4239 26.1654 97.3775 26.1758 97.3331 26.1892C97.3125 26.1613 97.2908 26.1334 97.2681 26.1055C96.972 25.7373 96.6273 25.4612 96.2734 25.1552C95.9421 24.8677 95.7894 24.4158 95.354 24.1976C94.806 23.9236 94.1456 24.0549 93.8196 24.6009C93.12 25.7704 94.2942 26.6246 95.0454 27.3329C94.3923 26.9245 93.7123 26.5512 93.0147 26.2285C92.6226 26.0476 92.2243 25.8728 91.8198 25.7218C91.2203 25.4985 90.7353 25.5699 90.2431 25.9855C90.0233 26.1716 89.9139 26.5781 90.015 26.849C90.2111 27.3681 90.5206 27.6835 91.0634 27.8334C91.4452 27.9389 91.8363 28.0102 92.2181 28.1209C92.8579 28.3049 93.479 28.5293 94.0817 28.8096C94.0383 28.8364 93.9971 28.8654 93.9589 28.8985C93.509 28.7527 93.0508 28.6265 92.5906 28.519C91.8273 28.3396 91.0505 28.2185 90.2702 28.1427L90.011 28.1185C89.0755 28.0285 87.9506 27.8625 87.3765 28.7599C87.1877 29.0557 87.167 29.5438 87.3765 29.8364C87.7769 30.3989 88.1752 30.5106 88.8377 30.5209C88.1855 30.5902 87.5344 30.6761 86.8864 30.7764C86.4397 30.8446 85.993 30.922 85.5483 31.0078L85.3262 31.0514C84.7844 31.16 84.1797 31.2231 83.7144 31.5374C82.699 32.2241 83.1757 33.5611 84.3005 33.7038C84.8443 33.7721 85.4479 33.5415 85.9814 33.4339C86.4994 33.3295 87.0195 33.2375 87.5416 33.1568C87.812 33.1144 88.0823 33.0772 88.3537 33.043C87.8016 33.1227 87.2537 33.2354 86.7202 33.3946L86.572 33.4394C85.5407 33.7544 84.1486 34.2561 83.8268 35.3604C83.6318 36.0315 84.1653 36.6168 84.8113 36.6561C85.4118 36.6923 85.9123 36.3335 86.422 36.0687C86.7935 35.8764 87.1712 35.7327 87.5715 35.6096C87.9853 35.4824 88.4074 35.3769 88.8325 35.2911C88.4732 35.4895 88.1233 35.7075 87.7874 35.9514L87.633 36.0657C86.7403 36.7322 85.379 37.7643 85.6935 39.0138C85.7926 39.4078 86.2311 39.7842 86.6521 39.7438C87.748 39.6415 88.3527 38.4719 89.1792 37.8453C89.3949 37.6819 89.6312 37.5206 89.8788 37.3634C88.6261 38.8607 87.6293 40.5918 86.8709 42.3797C85.204 46.3131 84.6927 49.9557 84.6804 54.185L84.6802 54.316C84.6781 56.6488 84.7308 59.0241 84.9578 61.3466C85.1683 63.4923 85.5542 65.6101 86.5252 67.5532C88.1525 70.8115 91.3234 73.3491 94.8205 74.3149C98.7117 75.3903 103.061 74.5496 106.249 72.0679C107.062 71.435 105.983 70.0608 105.153 70.645C101.835 72.9768 97.5447 73.7151 93.737 72.1371C90.7167 70.8859 88.2846 68.1942 87.2537 65.0951C86.5976 63.1235 86.4065 61.0213 86.1725 58.9666L86.1568 58.8297C85.9092 56.6809 85.7657 54.5176 85.7678 52.3543C85.7709 48.337 86.3467 45.03 88.1102 41.3859C88.9398 39.6694 90.0161 38.0822 91.3018 36.6892C91.6918 36.7688 92.1066 36.6571 92.5008 36.6147C92.702 36.593 92.9033 36.5723 93.1045 36.5537C92.8989 36.6869 92.6973 36.8254 92.4992 36.9671L92.2393 37.1549C91.426 37.7386 90.3942 38.4034 90.6032 39.5318C90.66 39.8369 90.9633 40.1171 91.2574 40.1864C92.3233 40.4408 93.056 39.4026 93.7762 38.7863C94.4026 38.2506 95.0578 37.7708 95.7255 37.29C95.8771 37.1814 96.0299 37.0728 96.1836 36.9653C96.0391 37.134 95.8986 37.3054 95.7616 37.4784L95.5589 37.7358C94.9457 38.5047 94.0618 39.5041 94.6079 40.5008C94.7627 40.782 95.0929 40.9692 95.4128 40.963C96.5128 40.9402 96.9503 39.689 97.4662 38.899C97.9099 38.2217 98.3918 37.5837 98.8902 36.9456C99.0275 36.7709 99.1657 36.5961 99.3061 36.4214C101.616 36.5413 103.919 36.8474 106.18 37.3365C107.734 37.6726 109.263 38.108 110.78 38.5846L110.906 38.6248C111.727 38.8897 112.572 39.2287 113.164 39.81C113.249 40.2105 113.184 40.6329 113.103 41.0329L113.04 41.3391C112.781 42.6193 112.604 43.8759 112.736 45.1903C112.873 46.5459 113.281 47.7651 113.778 49.0246C114.013 49.6182 114.257 49.5106 114.341 50.1476C114.405 50.6328 114.365 51.1337 114.321 51.6229L114.285 52.0377C114.193 53.1242 114.147 54.3088 114.858 55.2053C114.968 55.3428 115.204 55.288 115.283 55.1505C115.314 55.0956 115.347 55.0429 115.383 54.9922C115.725 54.4949 116.251 54.2115 116.851 54.1019C116.927 54.0885 116.898 53.9861 116.834 53.9778C116.326 53.9178 115.845 54.045 115.436 54.3077C115.63 53.6362 117.13 53.9628 117.624 54.0932L117.641 54.0978C118.256 54.2632 118.838 54.5321 119.35 54.9126C120.382 55.6778 120.979 56.8711 120.949 58.1565C120.919 59.4201 120.268 60.5876 119.149 61.1925C118.609 61.4841 117.995 61.6248 117.385 61.6186C116.747 61.6124 116.179 61.3321 115.541 61.3714C115.171 61.3942 114.888 61.7913 115.102 62.1377C115.244 62.3693 115.43 62.5513 115.645 62.6909C115.122 63.8997 114.454 65.0527 113.684 66.1168C113.258 66.7072 112.775 67.2522 112.244 67.7496C111.829 68.1384 110.93 68.5882 110.981 69.2366C110.998 69.4703 111.119 69.613 111.332 69.6998C111.992 69.9706 112.796 69.0383 113.238 68.5889L113.274 68.553C113.825 68.0029 114.327 67.3949 114.765 66.7496C115.541 65.6039 116.023 64.3123 116.222 62.9556C117.281 63.2751 118.685 62.9753 119.55 62.5834C122.267 61.3528 123.156 57.685 121.504 55.2425C121.184 54.7699 120.784 54.3656 120.328 54.0388C120.428 53.984 120.522 53.9137 120.605 53.8248C121.067 53.3326 121.394 52.6903 121.719 52.0983L121.758 52.0276C122.046 51.5064 122.317 50.977 122.572 50.4395L122.667 50.2376C123.235 49.0122 123.734 48.4766 124.139 47.1881C124.529 45.9452 124.837 44.6784 125.036 43.39L125.089 43.0489C125.204 42.3013 125.313 41.5018 125.229 40.7427C125.808 40.932 126.39 41.0488 126.963 40.7645C127.34 40.5773 127.549 40.0313 127.42 39.6394C127.326 39.3509 127.169 39.1244 126.97 38.9466C127.088 38.8866 127.2 38.8101 127.298 38.7253L127.384 38.6509C127.73 38.3489 127.755 37.775 127.545 37.3965C127.524 37.3603 127.503 37.3231 127.484 37.2869C127.283 36.9281 126.87 36.6933 126.461 36.6995C126.395 36.7006 126.329 36.7006 126.262 36.6995C126.453 36.6571 126.64 36.592 126.817 36.4824C127.618 35.9891 127.517 34.6521 126.548 34.4163C126.141 34.3181 125.692 34.3584 125.244 34.4639C125.261 34.4546 125.277 34.4452 125.294 34.4349C125.632 34.2271 125.916 33.8207 125.884 33.4039C125.849 32.9427 125.701 32.6139 125.294 32.3719C124.941 32.1631 124.442 32.1434 124.091 32.3719C123.786 32.5715 123.488 32.7918 123.201 33.0286C123.489 32.6739 123.739 32.2882 123.84 31.8787C123.965 31.3689 123.756 30.8136 123.298 30.5447C122.933 30.3307 122.547 30.3545 122.202 30.5199C122.221 30.2521 122.156 29.9791 121.979 29.7371C121.615 29.2409 120.955 28.9554 120.38 29.3173C120.305 29.3649 120.204 29.4465 120.106 29.5469C120.297 28.9378 120.124 28.2987 119.473 28.0237C119.076 27.8551 118.538 27.9399 118.194 28.2305C118.412 27.0444 116.665 26.1727 115.986 27.3981C115.832 27.6756 115.68 27.9679 115.544 28.267L115.493 28.3794L115.488 28.3773L115.523 28.2951L115.558 28.2129C115.747 27.7734 115.987 27.3164 116.053 26.8397C116.15 26.1344 115.837 25.4654 115.071 25.362C114.676 25.3082 114.236 25.4881 113.971 25.8026C114.115 24.7084 112.895 23.9132 112.017 24.7302C111.601 25.1169 111.379 25.6825 111.115 26.1789C110.965 26.4591 110.813 26.7383 110.663 27.0196C110.625 26.9741 110.583 26.9286 110.54 26.8841C110.762 26.2182 110.934 25.5357 111.08 24.8491C111.218 24.2017 110.895 23.5296 110.229 23.3467C109.623 23.179 108.864 23.5535 108.729 24.1998C108.634 24.6547 108.522 25.1046 108.398 25.5522C108.313 25.5316 108.23 25.5171 108.147 25.5067C108.14 25.4226 108.133 25.3381 108.124 25.254L108.091 24.9548C108.019 24.2714 107.946 23.4912 107.59 22.9102C106.982 21.9175 105.424 22.329 105.408 23.5027C105.398 24.1097 105.645 24.7115 105.731 25.3123C105.768 25.574 105.789 25.8387 105.802 26.1034C105.636 25.2244 105.408 24.3569 105.143 23.5027C105.112 23.4003 105.079 23.298 105.047 23.1956ZM118.491 57.0904C117.124 56.8784 115.874 57.6426 115.064 58.7129C114.916 58.9083 115.013 59.1844 115.146 59.3488C115.242 59.4698 115.371 59.4843 115.517 59.5029C115.684 59.5246 115.896 59.3891 115.969 59.2433C116.49 58.201 117.42 57.5423 118.491 57.137C118.51 57.1297 118.517 57.0946 118.491 57.0904ZM116.595 38.4146L116.554 38.3701C116.277 38.0825 116.715 37.6432 116.992 37.9314C117.284 38.2348 117.478 38.6034 117.664 38.9769C117.842 39.333 117.308 39.6476 117.13 39.2901L117.048 39.1276C116.921 38.875 116.785 38.6254 116.595 38.4146ZM120.435 37.8244C120.043 37.7582 120.209 37.1602 120.6 37.2262C121.106 37.3116 121.609 37.4087 122.115 37.4942C122.507 37.5604 122.341 38.1584 121.951 38.0925C121.445 38.007 120.941 37.9099 120.435 37.8244ZM97.0767 33.7418C97.4555 33.6151 97.618 34.2141 97.2413 34.3401C96.7207 34.5141 96.2043 34.6925 95.7105 34.9342C95.3538 35.1087 95.0395 34.5738 95.398 34.3984C95.9401 34.1332 96.5052 33.9329 97.0767 33.7418ZM120.524 32.9377C120.894 32.7894 121.055 33.3893 120.689 33.536L119.352 34.072C118.982 34.2202 118.821 33.6205 119.187 33.4737L120.524 32.9377ZM92.407 31.4809L92.4558 31.4501C92.7912 31.2323 93.1019 31.7692 92.7684 31.9858C92.5726 32.1129 92.3345 32.1991 92.1553 32.3506L92.1178 32.384C91.8282 32.6581 91.3896 32.2202 91.68 31.9453C91.8924 31.7443 92.1613 31.6324 92.407 31.4809Z" fill="black"/>
<path fill-rule="evenodd" clip-rule="evenodd" d="M103.003 63.5021C101.725 62.0352 99.5716 61.933 97.7879 62.2998C96.6432 62.5352 95.5287 62.9274 94.3661 63.0727C93.8231 63.1407 93.2743 63.161 92.7273 63.151C92.19 63.1412 91.652 63.0343 91.1166 63.0542C91.0343 63.0572 91.0032 63.1639 91.0745 63.2073C91.809 63.6527 92.7984 63.7956 93.666 63.8827C93.6633 63.9461 93.6594 64.0079 93.6505 64.0604C93.6268 64.2003 93.6052 64.3393 93.5878 64.4801C93.5484 64.7977 93.5044 65.1143 93.4604 65.4312C93.3738 66.0551 93.3465 66.6987 93.1941 67.3117L93.1676 67.4136C93.1323 67.5425 93.1242 67.6586 93.136 67.7634L93.1007 67.7476L92.9893 67.6943L92.9162 67.6602C92.6496 67.5382 92.3951 67.4493 92.0817 67.479C91.843 67.5014 91.6427 67.6621 91.6412 67.9138C91.6352 69.0431 93.1766 69.4063 94.0583 69.6224L94.3169 69.6853C95.4391 69.9556 96.585 70.1925 97.7392 70.2492C99.5915 70.34 101.673 69.8355 102.885 68.352C104.015 66.9678 104.222 64.9008 103.003 63.5021ZM94.5916 68.2469C94.786 66.5467 96.902 66.4532 97.5108 67.5314C97.7809 66.0285 101.777 67.4015 101.464 67.7003C100.28 68.8328 98.4829 68.9347 96.9378 68.7253C96.1509 68.6186 95.3634 68.4449 94.5916 68.2469ZM96.94 63.7906L97.472 63.715L97.6816 63.6865C99.0004 63.5121 100.484 63.422 101.568 64.2569C101.964 64.5616 102.187 64.9591 102.27 65.3861C101.244 65.2359 100.214 65.1214 99.1812 65.026L98.8994 65.0004C98.2532 64.9429 97.6072 64.8823 96.9616 64.8187L96.5028 64.7728L96.0441 64.7258C95.8827 64.7091 94.795 64.6542 94.5904 64.6911C94.5686 64.5097 94.5401 64.117 94.494 63.9404C95.2668 63.9663 96.0362 63.9096 96.8045 63.8088L96.94 63.7906ZM94.4911 56.191C93.7027 56.6641 92.5015 57.7675 93.3496 58.9405C94.3479 59.9748 95.7853 58.7889 96.4936 58.2526C97.1503 57.8369 97.8882 58.906 97.2789 59.3913C92.1607 63.1329 90.0837 56.3147 94.0924 55.6346C94.5337 55.5597 94.6977 56.0446 94.4911 56.191ZM93.08 58.1847L93.0418 58.1642L93.0288 58.1565C93.0065 58.1423 93.0207 58.1438 93.0715 58.1611L93.1096 58.1746V58.2011C93.0998 58.1952 93.0894 58.1908 93.08 58.1847ZM103.177 53.9804L103.177 53.9572C103.176 53.2999 102.788 51.799 101.83 51.799C101.231 51.799 100.867 52.8204 100.804 53.8734L100.802 53.9163C100.774 54.571 100.956 56.0019 101.83 56.0019C102.712 56.0019 103.168 54.6467 103.177 53.9804ZM89.0666 53.7743L89.0664 53.751C89.0679 53.0937 89.4556 51.5928 90.4141 51.5928C90.9978 51.5928 91.358 52.5638 91.434 53.5883L91.4393 53.6672C91.4771 54.2998 91.3069 55.7958 90.4141 55.7958C89.5316 55.7958 89.0756 54.4405 89.0666 53.7743ZM102.63 47.317C101.848 47.1996 100.812 47.4227 100.448 48.208C100.285 48.5579 100.478 48.9448 100.887 48.9641C101.877 49.0109 102.765 48.7934 103.634 49.429C104.007 49.7025 104.322 50.0813 104.586 50.4591L104.685 50.6028L104.768 50.7213C104.947 50.9813 105.117 51.2638 105.09 51.5776C105.083 51.6705 105.179 51.7586 105.27 51.7549C105.839 51.7318 105.901 51.0269 105.826 50.6035C105.687 49.8178 105.301 49.0802 104.768 48.4861C104.207 47.8623 103.467 47.4427 102.63 47.317ZM91.8571 48.2706C91.3177 47.9283 90.6278 47.7967 89.996 47.8472C88.7502 47.9462 86.6601 48.9919 86.9352 50.4944C87.0201 50.9578 87.6728 51.2023 88.0575 50.9452C88.471 50.6688 88.5716 50.2393 88.8794 49.8781C89.125 49.5895 89.4362 49.3808 89.7694 49.2029C90.0979 49.0276 90.4779 48.9213 90.8507 48.8825L90.9127 48.8767C91.1371 48.8578 92.2701 48.8629 92.1038 49.2805C92.0712 49.3622 92.1944 49.427 92.251 49.3651C92.5983 48.9857 92.2049 48.4914 91.8571 48.2706Z" fill="black"/>
</svg>
